<svg xmlns="http://www.w3.org/2000/svg" width="1280" height="720" viewBox="0 0 1280 720" role="img" aria-labelledby="title desc">
  <title id="title">How to Stay Motivated When Life Gets Hard</title>
  <desc id="desc">Unique editorial cover illustration for How to Stay Motivated When Life Gets Hard on Life Now Tips.</desc>
  <defs>
    <linearGradient id="bg" x1="0" y1="0" x2="1" y2="1">
      <stop offset="0%" stop-color="#344966"/>
      <stop offset="58%" stop-color="#344966"/>
      <stop offset="100%" stop-color="#D6C088"/>
    </linearGradient>
    <pattern id="grain" width="72" height="72" patternUnits="userSpaceOnUse">
      <path d="M0 71H72M71 0V72" stroke="#F5F1E8" stroke-opacity="0.055" stroke-width="1"/>
      <circle cx="18" cy="18" r="1.7" fill="#F5F1E8" fill-opacity="0.11"/>
      <circle cx="50" cy="44" r="1.2" fill="#D6C088" fill-opacity="0.18"/>
    </pattern>
    <filter id="shadow" x="-20%" y="-20%" width="140%" height="140%">
      <feDropShadow dx="0" dy="18" stdDeviation="18" flood-color="#000000" flood-opacity="0.18"/>
    </filter>
  </defs>
  <rect width="1280" height="720" fill="url(#bg)"/>
  <rect width="1280" height="720" fill="url(#grain)"/>
  <g opacity="0.95">
    <circle cx="938" cy="193" r="190" fill="none" stroke="#F5F1E8" stroke-width="2" opacity="0.21"/><circle cx="349" cy="539" r="194" fill="none" stroke="#D6C088" stroke-width="2" opacity="0.21"/><circle cx="276" cy="359" r="168" fill="none" stroke="#F5F1E8" stroke-width="2" opacity="0.21"/><circle cx="1032" cy="246" r="103" fill="none" stroke="#D6C088" stroke-width="2" opacity="0.14"/><circle cx="871" cy="340" r="74" fill="none" stroke="#F5F1E8" stroke-width="2" opacity="0.11"/><circle cx="851" cy="447" r="164" fill="none" stroke="#D6C088" stroke-width="2" opacity="0.09"/><circle cx="211" cy="319" r="55" fill="none" stroke="#F5F1E8" stroke-width="2" opacity="0.08"/>
  </g>
  <g><rect x="873" y="368" width="150" height="98" rx="18" transform="rotate(-14 948 417)" fill="#D6C088" opacity="0.18"/><rect x="889" y="322" width="150" height="98" rx="18" transform="rotate(14 964 371)" fill="#D6C088" opacity="0.20"/><rect x="1009" y="256" width="150" height="98" rx="18" transform="rotate(-11 1084 305)" fill="#D6C088" opacity="0.22"/><rect x="1016" y="221" width="150" height="98" rx="18" transform="rotate(4 1091 270)" fill="#D6C088" opacity="0.24"/></g>
  <g><rect x="768" y="228" width="18" height="412" rx="9" fill="#F5F1E8" opacity="0.14"/><rect x="819" y="204" width="18" height="436" rx="9" fill="#D6C088" opacity="0.26"/><rect x="867" y="192" width="18" height="448" rx="9" fill="#D6C088" opacity="0.26"/><rect x="905" y="186" width="18" height="454" rx="9" fill="#F5F1E8" opacity="0.14"/><rect x="956" y="348" width="18" height="292" rx="9" fill="#D6C088" opacity="0.26"/><rect x="996" y="264" width="18" height="376" rx="9" fill="#D6C088" opacity="0.26"/><rect x="1048" y="387" width="18" height="253" rx="9" fill="#F5F1E8" opacity="0.14"/><rect x="1088" y="449" width="18" height="191" rx="9" fill="#D6C088" opacity="0.26"/></g>
  <path d="M760 102 C884 44 1039 73 1158 164 C1074 147 985 174 897 238 C845 276 797 326 742 353 C735 260 728 166 760 102Z" fill="#F5F1E8" opacity="0.10"/>
  <rect x="72" y="86" width="612" height="548" rx="34" fill="#F5F1E8" opacity="0.08" filter="url(#shadow)"/>
  <rect x="86" y="108" width="92" height="6" rx="3" fill="#D6C088"/>
  <text x="86" y="177" fill="#D6C088" font-family="Source Sans 3, Arial, sans-serif" font-size="24" font-weight="800" letter-spacing="3">SELF IMPROVEMENT</text>
  <text fill="#F5F1E8" font-family="Merriweather, Georgia, serif" font-size="50" font-weight="800" letter-spacing="0" line-height="1.15">
    <tspan x="86" y="305">How to Stay Motivated</tspan>
<tspan x="86" y="369">When Life Gets Hard</tspan>
  </text>
  <text x="86" y="586" fill="#F5F1E8" opacity="0.78" font-family="Source Sans 3, Arial, sans-serif" font-size="26" font-weight="600">Life Now Tips • Practical guide</text>
  <circle cx="1130" cy="136" r="54" fill="#F5F1E8" opacity="0.11"/>
  <circle cx="1130" cy="136" r="22" fill="#D6C088" opacity="0.72"/>
  <path d="M1066 574L1156 484L1246 574" fill="none" stroke="#F5F1E8" stroke-width="10" stroke-linecap="round" stroke-linejoin="round" opacity="0.28"/>
  <path d="M1012 612H1226" stroke="#D6C088" stroke-width="10" stroke-linecap="round" opacity="0.52"/>
</svg>