<svg xmlns="http://www.w3.org/2000/svg" width="1280" height="720" viewBox="0 0 1280 720" role="img" aria-labelledby="title desc">
  <title id="title">How to Build Self Discipline</title>
  <desc id="desc">Unique editorial cover illustration for How to Build Self Discipline on Life Now Tips.</desc>
  <defs>
    <linearGradient id="bg" x1="0" y1="0" x2="1" y2="1">
      <stop offset="0%" stop-color="#654062"/>
      <stop offset="58%" stop-color="#654062"/>
      <stop offset="100%" stop-color="#C9A84C"/>
    </linearGradient>
    <pattern id="grain" width="72" height="72" patternUnits="userSpaceOnUse">
      <path d="M0 71H72M71 0V72" stroke="#F6F0E6" stroke-opacity="0.055" stroke-width="1"/>
      <circle cx="18" cy="18" r="1.7" fill="#F6F0E6" fill-opacity="0.11"/>
      <circle cx="50" cy="44" r="1.2" fill="#C9A84C" fill-opacity="0.18"/>
    </pattern>
    <filter id="shadow" x="-20%" y="-20%" width="140%" height="140%">
      <feDropShadow dx="0" dy="18" stdDeviation="18" flood-color="#000000" flood-opacity="0.18"/>
    </filter>
  </defs>
  <rect width="1280" height="720" fill="url(#bg)"/>
  <rect width="1280" height="720" fill="url(#grain)"/>
  <g opacity="0.95">
    <circle cx="682" cy="537" r="104" fill="none" stroke="#F6F0E6" stroke-width="2" opacity="0.12"/><circle cx="1082" cy="426" r="207" fill="none" stroke="#C9A84C" stroke-width="2" opacity="0.17"/><circle cx="1132" cy="183" r="179" fill="none" stroke="#F6F0E6" stroke-width="2" opacity="0.12"/><circle cx="374" cy="404" r="220" fill="none" stroke="#C9A84C" stroke-width="2" opacity="0.17"/><circle cx="789" cy="249" r="195" fill="none" stroke="#F6F0E6" stroke-width="2" opacity="0.12"/><circle cx="968" cy="408" r="61" fill="none" stroke="#C9A84C" stroke-width="2" opacity="0.10"/><circle cx="353" cy="114" r="52" fill="none" stroke="#F6F0E6" stroke-width="2" opacity="0.09"/>
  </g>
  <g><rect x="977" y="292" width="150" height="98" rx="18" transform="rotate(-15 1052 341)" fill="#D6C088" opacity="0.18"/><rect x="896" y="295" width="150" height="98" rx="18" transform="rotate(15 971 344)" fill="#D6C088" opacity="0.20"/><rect x="983" y="247" width="150" height="98" rx="18" transform="rotate(-8 1058 296)" fill="#D6C088" opacity="0.22"/><rect x="844" y="318" width="150" height="98" rx="18" transform="rotate(11 919 367)" fill="#D6C088" opacity="0.24"/></g>
  <g><rect x="770" y="435" width="18" height="205" rx="9" fill="#F6F0E6" opacity="0.14"/><rect x="811" y="308" width="18" height="332" rx="9" fill="#C9A84C" opacity="0.26"/><rect x="863" y="244" width="18" height="396" rx="9" fill="#C9A84C" opacity="0.26"/><rect x="912" y="212" width="18" height="428" rx="9" fill="#F6F0E6" opacity="0.14"/><rect x="951" y="196" width="18" height="444" rx="9" fill="#C9A84C" opacity="0.26"/><rect x="993" y="353" width="18" height="287" rx="9" fill="#C9A84C" opacity="0.26"/><rect x="1046" y="432" width="18" height="208" rx="9" fill="#F6F0E6" opacity="0.14"/><rect x="1096" y="471" width="18" height="169" rx="9" fill="#C9A84C" opacity="0.26"/></g>
  <path d="M760 102 C884 44 1039 73 1158 164 C1074 147 985 174 897 238 C845 276 797 326 742 353 C735 260 728 166 760 102Z" fill="#F6F0E6" opacity="0.10"/>
  <rect x="72" y="86" width="612" height="548" rx="34" fill="#F6F0E6" opacity="0.08" filter="url(#shadow)"/>
  <rect x="86" y="108" width="92" height="6" rx="3" fill="#C9A84C"/>
  <text x="86" y="177" fill="#C9A84C" font-family="Source Sans 3, Arial, sans-serif" font-size="24" font-weight="800" letter-spacing="3">SELF IMPROVEMENT</text>
  <text fill="#F6F0E6" font-family="Merriweather, Georgia, serif" font-size="50" font-weight="800" letter-spacing="0" line-height="1.15">
    <tspan x="86" y="305">How to Build Self</tspan>
<tspan x="86" y="369">Discipline</tspan>
  </text>
  <text x="86" y="586" fill="#F6F0E6" opacity="0.78" font-family="Source Sans 3, Arial, sans-serif" font-size="26" font-weight="600">Life Now Tips • Practical guide</text>
  <circle cx="1130" cy="136" r="54" fill="#F6F0E6" opacity="0.11"/>
  <circle cx="1130" cy="136" r="22" fill="#C9A84C" opacity="0.72"/>
  <path d="M1066 574L1156 484L1246 574" fill="none" stroke="#F6F0E6" stroke-width="10" stroke-linecap="round" stroke-linejoin="round" opacity="0.28"/>
  <path d="M1012 612H1226" stroke="#C9A84C" stroke-width="10" stroke-linecap="round" opacity="0.52"/>
</svg>