<svg xmlns="http://www.w3.org/2000/svg" width="1280" height="720" viewBox="0 0 1280 720" role="img" aria-labelledby="title desc">
  <title id="title">How to Create a Minimalist Lifestyle on a Budget</title>
  <desc id="desc">Unique editorial cover illustration for How to Create a Minimalist Lifestyle on a Budget on Life Now Tips.</desc>
  <defs>
    <linearGradient id="bg" x1="0" y1="0" x2="1" y2="1">
      <stop offset="0%" stop-color="#823E3D"/>
      <stop offset="58%" stop-color="#823E3D"/>
      <stop offset="100%" stop-color="#EBCB8B"/>
    </linearGradient>
    <pattern id="grain" width="72" height="72" patternUnits="userSpaceOnUse">
      <path d="M0 71H72M71 0V72" stroke="#FBF3EA" stroke-opacity="0.055" stroke-width="1"/>
      <circle cx="18" cy="18" r="1.7" fill="#FBF3EA" fill-opacity="0.11"/>
      <circle cx="50" cy="44" r="1.2" fill="#EBCB8B" fill-opacity="0.18"/>
    </pattern>
    <filter id="shadow" x="-20%" y="-20%" width="140%" height="140%">
      <feDropShadow dx="0" dy="18" stdDeviation="18" flood-color="#000000" flood-opacity="0.18"/>
    </filter>
  </defs>
  <rect width="1280" height="720" fill="url(#bg)"/>
  <rect width="1280" height="720" fill="url(#grain)"/>
  <g opacity="0.95">
    <circle cx="1097" cy="592" r="179" fill="none" stroke="#FBF3EA" stroke-width="2" opacity="0.11"/><circle cx="242" cy="396" r="82" fill="none" stroke="#EBCB8B" stroke-width="2" opacity="0.09"/><circle cx="645" cy="316" r="127" fill="none" stroke="#FBF3EA" stroke-width="2" opacity="0.08"/><circle cx="950" cy="108" r="128" fill="none" stroke="#EBCB8B" stroke-width="2" opacity="0.15"/><circle cx="733" cy="433" r="203" fill="none" stroke="#FBF3EA" stroke-width="2" opacity="0.18"/><circle cx="196" cy="386" r="77" fill="none" stroke="#EBCB8B" stroke-width="2" opacity="0.20"/><circle cx="384" cy="146" r="52" fill="none" stroke="#FBF3EA" stroke-width="2" opacity="0.21"/>
  </g>
  <g><rect x="1032" y="227" width="150" height="98" rx="18" transform="rotate(5 1107 276)" fill="#DFA06E" opacity="0.18"/><rect x="926" y="220" width="150" height="98" rx="18" transform="rotate(-12 1001 269)" fill="#DFA06E" opacity="0.20"/><rect x="906" y="285" width="150" height="98" rx="18" transform="rotate(-9 981 334)" fill="#DFA06E" opacity="0.22"/><rect x="878" y="246" width="150" height="98" rx="18" transform="rotate(17 953 295)" fill="#DFA06E" opacity="0.24"/></g>
  <g><rect x="771" y="360" width="18" height="280" rx="9" fill="#FBF3EA" opacity="0.14"/><rect x="820" y="435" width="18" height="205" rx="9" fill="#EBCB8B" opacity="0.26"/><rect x="868" y="308" width="18" height="332" rx="9" fill="#EBCB8B" opacity="0.26"/><rect x="906" y="409" width="18" height="231" rx="9" fill="#FBF3EA" opacity="0.14"/><rect x="957" y="460" width="18" height="180" rx="9" fill="#EBCB8B" opacity="0.26"/><rect x="996" y="485" width="18" height="155" rx="9" fill="#EBCB8B" opacity="0.26"/><rect x="1039" y="333" width="18" height="307" rx="9" fill="#FBF3EA" opacity="0.14"/><rect x="1092" y="257" width="18" height="383" rx="9" fill="#EBCB8B" opacity="0.26"/></g>
  <path d="M760 102 C884 44 1039 73 1158 164 C1074 147 985 174 897 238 C845 276 797 326 742 353 C735 260 728 166 760 102Z" fill="#FBF3EA" opacity="0.10"/>
  <rect x="72" y="86" width="612" height="548" rx="34" fill="#FBF3EA" opacity="0.08" filter="url(#shadow)"/>
  <rect x="86" y="108" width="92" height="6" rx="3" fill="#EBCB8B"/>
  <text x="86" y="177" fill="#EBCB8B" font-family="Source Sans 3, Arial, sans-serif" font-size="24" font-weight="800" letter-spacing="3">LIFESTYLE</text>
  <text fill="#FBF3EA" font-family="Merriweather, Georgia, serif" font-size="50" font-weight="800" letter-spacing="0" line-height="1.15">
    <tspan x="86" y="305">How to Create a</tspan>
<tspan x="86" y="369">Minimalist Lifestyle on</tspan>
<tspan x="86" y="433">a Budget</tspan>
  </text>
  <text x="86" y="586" fill="#FBF3EA" opacity="0.78" font-family="Source Sans 3, Arial, sans-serif" font-size="26" font-weight="600">Life Now Tips • Practical guide</text>
  <circle cx="1130" cy="136" r="54" fill="#FBF3EA" opacity="0.11"/>
  <circle cx="1130" cy="136" r="22" fill="#EBCB8B" opacity="0.72"/>
  <path d="M1066 574L1156 484L1246 574" fill="none" stroke="#FBF3EA" stroke-width="10" stroke-linecap="round" stroke-linejoin="round" opacity="0.28"/>
  <path d="M1012 612H1226" stroke="#EBCB8B" stroke-width="10" stroke-linecap="round" opacity="0.52"/>
</svg>